<svg width="82" height="28" viewBox="0 0 82 28" fill="none" xmlns="http://www.w3.org/2000/svg">
<path d="M22.6144 0.626064C21.9979 0.204749 21.2154 5.69366e-05 20.2247 5.69366e-05C19.1919 5.69366e-05 18.386 0.218437 17.7614 0.667122C17.0198 1.20026 16.4011 1.80567 15.9227 2.46665L0 24.9209H6.44487L19.9826 5.7374L30.3306 20.5396C32.2185 23.2825 35.3345 24.9209 38.6645 24.9209H40.0951L24.4414 2.46057C23.9291 1.71783 23.3208 1.10808 22.6144 0.626064Z" fill="#010722"/>
<path d="M34.1882 2.6679C32.9104 0.814846 30.271 5.19255e-06 27.9328 5.19255e-06H25.3631C25.3631 5.19255e-06 39.4377 20.2308 39.5535 20.3704C41.7758 23.0628 44.9 25.1245 49.7039 24.9398L34.1882 2.6679Z" fill="#010722"/>
<path d="M70.3339 24.9381C72.36 26.5922 74.9861 27.6735 78.5223 27.5375L73.7005 20.6161L73.7003 20.6161C72.7126 19.2 72.0788 18.2933 72.0546 18.2641C69.8322 15.5717 66.708 13.51 61.9042 13.6947L66.6533 20.5119H64.1979H61.2006H59.7638C53.4101 20.3964 50.0666 16.9477 49.9016 13.6373C49.8806 13.331 49.8677 13.0144 49.8677 12.6828C49.8677 12.5981 49.8696 12.5164 49.8716 12.4345L49.8735 12.3515L49.8747 12.2789C49.911 10.7653 50.1508 9.52326 50.6093 8.49875C51.2064 7.16837 52.1876 6.62576 53.1353 6.10164L53.2223 6.05356C54.3031 5.45937 55.688 5.05735 57.3407 4.85734C58.8765 4.673 60.7538 4.57965 62.9212 4.57965C65.0862 4.57965 66.9636 4.673 68.5005 4.85687C70.1568 5.05782 71.5405 5.45983 72.6166 6.0525L72.6973 6.09719C73.6494 6.62202 74.6342 7.16521 75.2319 8.49734C75.7255 9.60537 75.984 11.0124 75.9747 12.6828C75.956 16.321 74.5676 18.0782 74.5676 18.0782L77.6964 22.5708C77.6964 22.5708 81.478 19.0055 81.478 12.8089C81.478 12.7875 81.4791 12.7669 81.4803 12.7462C81.4815 12.7253 81.4827 12.7045 81.4827 12.6828C81.4827 12.6612 81.4821 12.6403 81.4815 12.6194C81.4809 12.5986 81.4803 12.5779 81.4803 12.5567C81.4791 12.3663 81.4745 12.1779 81.4686 11.9923C81.4639 11.8856 81.4593 11.7845 81.4534 11.6832C81.4523 11.6626 81.4514 11.6413 81.4506 11.62C81.4497 11.5982 81.4488 11.5764 81.4476 11.5558C81.447 11.5448 81.4458 11.5349 81.4446 11.5251C81.4435 11.5157 81.4423 11.5063 81.4417 11.4963C81.2008 7.70852 79.7808 4.97243 77.1105 3.16214C74.026 1.07568 69.2526 0.0172443 62.9212 0.0172443C56.5629 0.0172443 51.7836 1.07498 48.7144 3.16108C46.6406 4.57287 45.3282 6.53605 44.7317 9.12827C44.582 10.2528 44.4849 11.3761 44.4427 12.403L44.4533 13.6745L52.262 24.8878C52.7193 24.9198 53.3907 24.9381 53.8527 24.9381H70.3339Z" fill="#010722"/>
</svg>
